# xmcd CD database file
#
# Track frame offsets:
#	150
#	26739
#	57883
#	98933
#	139497
#	163467
#	191539
#	224568
#	257886
#	282225
#	310330
#
# Disc length: 4269 seconds
#
# Revision: 0
# Processed by: cddbd v1.5.1PL2 Copyright (c) Steve Scherf et al.
# Submitted via: CDex 1.70beta1
#
DISCID=b210ab0b
DTITLE=Sacha Perry Trio - Eretik
DYEAR=2005
DGENRE=Jazz
TTITLE0=Erratic
TTITLE1=All Right
TTITLE2=Let's Get With It
TTITLE3=I Keep Coming Back To You
TTITLE4=Whirligig
TTITLE5=Goodnight, Goodnight
TTITLE6=Another Day
TTITLE7=Things Gone By
TTITLE8=The Panic
TTITLE9=Hope Springs
TTITLE10=Desolation
EXTD=YEAR: 2005
EXTT0=
EXTT1=
EXTT2=
EXTT3=
EXTT4=
EXTT5=
EXTT6=
EXTT7=
EXTT8=
EXTT9=
EXTT10=
PLAYORDER=
